<svg width="222" height="83" viewBox="0 0 222 83" fill="none" xmlns="http://www.w3.org/2000/svg">
<path d="M71.9666 32.9344C70.4283 34.4063 67.9715 36.3097 66.4222 37.2836C64.6626 38.3903 62.2611 39.84 59.76 41.1901C59.417 41.3783 59.2842 41.8209 59.4723 42.1529C60.4572 43.8683 60.8335 45.9045 61.2098 47.7195C61.3979 48.6159 61.5196 49.5344 61.586 50.4529C61.586 50.4529 61.8516 54.7247 62.0951 58.4099C62.4935 58.8193 63.0579 59.0296 63.8104 58.4431C65.4594 57.1483 65.9131 58.0115 65.9131 58.0115C65.9131 58.0115 66.1455 58.1332 66.3226 57.8897C66.5107 57.6463 67.1083 57.5024 67.4956 58.0115C67.883 58.5316 68.8126 58.0336 68.8126 58.0336C68.8126 58.0336 69.2663 57.9672 69.5762 58.8636C69.7422 59.3395 70.2955 59.6161 70.7714 59.76C71.2804 59.926 71.6456 60.3797 71.701 60.922C71.712 61.0437 71.7231 61.1655 71.7342 61.2872C71.7674 61.8184 71.8006 62.4049 71.6014 62.9029C71.5239 63.1132 71.3911 63.2792 71.1808 63.3788C71.0702 63.4341 70.9816 63.4231 70.8599 63.4231C70.7382 63.4231 70.6164 63.4231 70.4836 63.4231C69.6315 63.4341 68.7904 63.4231 67.9383 63.4231C67.4624 63.4231 66.9866 63.4231 66.5218 63.4231C65.9684 63.4231 65.4151 63.4231 64.8618 63.4231C64.242 63.4231 63.6112 63.4231 62.9915 63.4231C62.3054 63.4231 61.6082 63.4231 60.922 63.4231C60.1806 63.4231 59.428 63.4231 58.6866 63.4231C57.8898 63.4231 57.093 63.4231 56.2962 63.4231C55.4551 63.4231 54.6251 63.4231 53.784 63.4231C52.9098 63.4231 52.0355 63.4231 51.1723 63.4231C50.2759 63.4231 49.3795 63.4231 48.472 63.4231C47.5535 63.4231 46.635 63.4231 45.7164 63.4231C44.7868 63.4231 43.8572 63.4231 42.9276 63.4231C41.998 63.4231 41.0574 63.4231 40.1278 63.4231C39.1982 63.4231 38.2686 63.4231 37.339 63.4231C36.4204 63.4231 35.5019 63.4231 34.5834 63.4231C33.687 63.4231 32.7795 63.4231 31.8831 63.4231C31.0088 63.4231 30.1346 63.4231 29.2603 63.4231C28.4192 63.4231 27.5782 63.4231 26.7371 63.4231C25.9403 63.4231 25.1324 63.4231 24.3356 63.4231C23.5831 63.4231 22.8306 63.4231 22.078 63.4231C21.3808 63.4231 20.6836 63.4231 19.9864 63.4231C19.3556 63.4231 18.7248 63.4231 18.083 63.4231C17.5186 63.4231 16.9542 63.4231 16.4008 63.4231C15.9139 63.4231 15.438 63.4231 14.9511 63.4231C14.5527 63.4231 14.1543 63.4231 13.7559 63.4231C13.2247 63.4231 12.6935 63.4231 12.1623 63.4341C11.8635 63.4452 11.5204 63.412 11.3212 63.1685C11.1774 62.9804 11.0999 62.748 11.0667 62.5156C10.9782 61.9844 11.0224 61.4311 11.0778 60.8999C11.1331 60.3687 11.4983 59.9039 12.0074 59.7379C12.4832 59.5829 13.0366 59.3173 13.2026 58.8415C13.5124 57.9561 13.9662 58.0115 13.9662 58.0115C13.9662 58.0115 14.8958 58.5095 15.2831 57.9893C15.6704 57.4692 16.2791 57.6131 16.4562 57.8676C16.6443 58.1111 16.8656 57.9893 16.8656 57.9893C16.8656 57.9893 17.3194 57.1261 18.9683 58.4209C19.5438 58.8747 20.0086 58.8525 20.3738 58.6423C21.1152 56.2187 21.248 50.6079 21.3587 49.5344C21.6132 47.0776 22.3436 44.2777 23.4171 42.1861C23.4171 42.1861 23.4171 42.1861 23.4171 42.1751C23.6163 41.7877 23.4724 41.3008 23.0851 41.0905C20.6283 39.7515 18.2711 38.3349 16.5447 37.2504C15.0064 36.2765 12.5386 34.3731 11.0003 32.9012C7.79095 29.8357 1.57149 21.0488 3.01015 19.5216C3.01015 19.5216 16.5336 18.592 29.6366 34.6829C30.2563 35.4465 31.3408 35.6789 32.2262 35.2473C32.536 35.0924 32.857 34.9485 33.1668 34.8047C35.3248 33.8751 37.6488 33.3217 39.995 33.1668C42.6842 32.9897 45.3955 33.3107 47.963 34.1517C48.8926 34.4616 49.8111 34.8379 50.6854 35.2695C51.5707 35.7121 52.6552 35.4797 53.286 34.7161C66.4 18.5809 79.9456 19.5105 79.9456 19.5105C81.4064 21.082 75.1759 29.8689 71.9666 32.9344Z" fill="black"/>
<path d="M13.3354 59.8596C13.5567 58.3878 14.11 58.8415 14.442 59.2952C14.5748 59.4833 14.8626 59.4723 14.9843 59.2731C15.8475 57.8676 16.1684 58.587 16.257 58.9189C16.2791 59.0075 16.3455 59.0739 16.434 59.1071C16.5447 59.1403 16.6554 59.1071 16.7328 59.0185C17.9502 57.4471 18.1383 58.6091 18.1604 59.3063C18.1604 59.4723 18.3486 59.5608 18.4924 59.4723C19.8315 58.5537 19.5106 61.0105 19.5106 61.0105C20.1856 61.1323 20.584 61.8737 20.7832 62.3717C20.8718 62.5931 20.7058 62.8255 20.4734 62.8255H12.0406C10.8564 60.4129 13.3354 59.8596 13.3354 59.8596ZM69.3659 59.8596C69.1446 58.3878 68.5912 58.8415 68.2592 59.2952C68.1264 59.4833 67.8387 59.4723 67.717 59.2731C66.8538 57.8676 66.5328 58.587 66.4443 58.9189C66.4222 59.0075 66.3558 59.0739 66.2672 59.1071C66.1566 59.1403 66.0459 59.1071 65.9684 59.0185C64.7511 57.4471 64.563 58.6091 64.5408 59.3063C64.5408 59.4723 64.3527 59.5608 64.2088 59.4723C62.8698 58.5537 63.1907 61.0105 63.1907 61.0105C62.5156 61.1323 62.1172 61.8737 61.918 62.3717C61.8295 62.5931 61.9955 62.8255 62.2279 62.8255H70.6607C71.8448 60.4129 69.3659 59.8596 69.3659 59.8596ZM73.6044 22.3104C73.1507 25.3869 72.1326 31.8277 69.4766 34.0632C67.894 35.3912 65.8578 36.7081 64.3638 37.6488C63.5338 38.1689 62.748 38.7776 61.9291 39.3088C61.4864 39.5965 61.0216 39.8621 60.5458 40.0945C60.2138 40.2495 59.5498 40.67 59.1846 40.5704C59.0407 40.5372 58.919 40.4376 58.7972 40.3491C58.6755 40.2605 58.5427 40.172 58.3988 40.1499C58.1443 40.1056 58.0447 40.2605 57.9894 40.4708C57.923 40.7364 57.9672 41.0241 58.1 41.2676C59.6051 43.9679 60.6122 47.0223 60.8667 50.0988C60.9663 51.3051 60.8224 52.5003 60.8888 53.6955C60.9552 54.8354 61.0548 55.9752 61.3204 57.0819C61.3868 57.3696 61.4643 57.6573 61.5528 57.934C61.5971 58.0779 61.7963 58.7419 61.4864 58.8193C61.4311 58.8304 61.3758 58.8194 61.3315 58.8083C59.8818 58.421 58.598 58.0004 57.1372 58.6533C56.1523 59.096 55.6764 59.8264 55.112 60.7228C54.9018 61.0659 54.7136 61.42 54.5476 61.7852C54.4702 61.9733 54.4038 62.1615 54.3263 62.3496C54.3152 62.3939 54.2378 62.8476 54.2378 62.8476C54.2378 62.8476 51.3494 62.8587 50.7407 62.8587C49.5455 62.8476 48.3503 62.8476 47.1551 62.8476C46.5022 62.8476 45.8492 62.8365 45.1963 62.8365L45.2848 62.0397C45.307 62.0397 45.3291 62.0397 45.3623 62.0397C46.2476 62.0397 47.2326 61.7077 48.1511 60.6675C48.2396 60.5679 48.2286 60.4129 48.129 60.3133C48.0294 60.2248 47.8744 60.2359 47.7748 60.3355C45.6832 62.7259 43.2264 60.8888 42.9719 60.6896C42.7838 60.4794 41.5 59.1846 38.8551 61.077C38.1468 61.586 37.4275 61.7852 36.7414 61.6635C35.513 61.4422 34.7162 60.2912 34.7051 60.2801C34.6276 60.1695 34.4727 60.1363 34.362 60.2137C34.2514 60.2912 34.2182 60.4461 34.2956 60.5568C34.3288 60.6121 35.2142 61.8959 36.6418 62.1504C36.8078 62.1836 36.9738 62.1947 37.1398 62.1947C37.2283 62.1947 37.3058 62.1947 37.3943 62.1836L37.4164 62.8033C36.6528 62.8033 35.8892 62.7923 35.1146 62.7812C33.4878 62.7591 31.872 62.7259 30.2452 62.7037C29.6255 62.6927 28.9947 62.6705 28.386 62.6705C28.4192 61.3979 27.5228 60.0256 26.5822 59.2509C25.4312 58.2992 23.7602 58.1996 22.3658 58.5427C22.0448 58.6201 21.1706 59.1403 20.9271 58.764C20.7611 58.4984 21.2923 58.0004 21.3698 57.757C21.8678 56.1855 21.9563 54.4259 22.1223 52.7991C22.3436 50.6189 22.2551 48.4499 22.6424 46.2919C22.8084 45.3733 23.063 44.4548 23.4392 43.6027C23.6274 43.1711 23.8487 42.7505 24.1032 42.3521C24.3135 42.0201 24.5791 41.7324 24.7783 41.3893C24.9332 41.1459 25.398 40.172 24.8004 40.1388C24.3356 40.1167 24.225 40.5261 23.4282 40.4265C22.4543 40.3048 21.4915 39.6851 20.6947 39.1539C19.8979 38.6337 19.1564 38.0472 18.3486 37.5381C16.8546 36.5975 14.3092 35.0481 12.8595 33.5763C10.5355 31.208 8.91977 22.8527 9.3403 21.6243C9.3403 21.6243 17.0316 21.4251 29.2824 35.9224C29.9022 36.6528 30.9424 36.8741 31.8167 36.4536C32.1044 36.3097 32.4032 36.1769 32.702 36.0441C34.7936 35.1477 38.1468 34.4837 40.4155 34.3399C43.0162 34.1628 45.639 34.4837 48.1179 35.3027C49.0254 35.6015 50.3976 36.2101 51.2498 36.6307C52.113 37.0623 53.286 36.3429 53.8836 35.6015C62.5378 24.8115 69.9967 22.1555 72.7634 21.5689C73.3056 21.4251 73.6819 21.7681 73.6044 22.3104ZM33.7644 52.5224C33.7644 50.3865 32.027 48.6491 29.8911 48.6491C27.7552 48.6491 26.0178 50.3865 26.0178 52.5224C26.0178 54.6583 27.7552 56.3957 29.8911 56.3957C32.027 56.3847 33.7644 54.6583 33.7644 52.5224ZM42.1972 54.78H41.2898H40.3823C39.9396 54.78 39.674 55.2669 39.9064 55.6321L40.327 56.3072C40.8028 56.9491 41.7656 56.9491 42.2415 56.3072L42.662 55.6321C42.9055 55.2669 42.6399 54.78 42.1972 54.78ZM56.7278 52.5224C56.7278 50.3865 54.9903 48.6491 52.8544 48.6491C50.7186 48.6491 48.9811 50.3865 48.9811 52.5224C48.9811 54.6583 50.7186 56.3957 52.8544 56.3957C55.0014 56.3847 56.7278 54.6583 56.7278 52.5224Z" fill="#FCD20B"/>
<path d="M21.7571 62.8034C21.7571 62.8034 20.418 61.7299 20.5619 60.2248C20.5619 60.2248 25.8186 56.5839 27.5892 62.8144L21.7571 62.8034ZM60.8556 62.8034C60.8556 62.8034 62.1947 61.7299 62.0508 60.2248C62.0508 60.2248 56.7942 56.5839 55.0235 62.8144L60.8556 62.8034ZM44.7647 62.914L44.7868 62.3717C44.7979 62.1725 44.6651 62.0066 44.477 61.9623C44.0343 61.8738 43.2596 61.6414 42.8502 61.1101C42.2526 60.3465 40.6036 60.2469 39.7515 61.1544C39.2314 61.7188 38.6338 61.8959 38.2464 61.9512C38.014 61.9844 37.848 62.1836 37.848 62.416V62.8808L44.7647 62.914Z" fill="#ED1C24"/>
<path d="M32.6135 51.2497C32.6135 52.2347 31.8167 53.0204 30.8428 53.0204C29.8579 53.0204 29.0721 52.2236 29.0721 51.2497C29.0721 50.2648 29.8689 49.4791 30.8428 49.4791C31.8167 49.4791 32.6135 50.2759 32.6135 51.2497ZM51.8031 49.4791C50.8181 49.4791 50.0324 50.2759 50.0324 51.2497C50.0324 52.2347 50.8292 53.0204 51.8031 53.0204C52.788 53.0204 53.5737 52.2236 53.5737 51.2497C53.5737 50.2759 52.7769 49.4791 51.8031 49.4791Z" fill="white"/>
<path d="M32.37 53.4078C32.37 53.452 32.3811 53.5074 32.3811 53.5516C32.3811 54.8132 31.3629 55.8313 30.1013 55.8313C28.9393 55.8313 27.9876 54.9682 27.8438 53.8504C28.4413 54.0164 29.1828 54.0939 29.9685 54.0386C30.9092 53.9722 31.7613 53.7398 32.37 53.4078ZM50.2648 53.4078C50.2648 53.452 50.2537 53.5074 50.2537 53.5516C50.2537 54.8132 51.2719 55.8313 52.5335 55.8313C53.6955 55.8313 54.6472 54.9682 54.7911 53.8504C54.1935 54.0164 53.452 54.0939 52.6663 54.0386C51.7256 53.9722 50.8735 53.7398 50.2648 53.4078Z" fill="#765241"/>
<path d="M109 38.75V23H122.5V25.25H124.75V32H122.5V34.25H113.5V38.75H109ZM113.5 32H120.25V25.25H113.5V32ZM129.25 38.75V36.5H127V29.75H129.25V27.5H140.5V29.75H142.75V36.5H140.5V38.75H129.25ZM131.5 36.5H138.25V29.75H131.5V36.5ZM145 38.75V23H149.5V32H154V29.75H156.25V27.5H160.75V29.75H158.5V32H156.25V34.25H158.5V36.5H160.75V38.75H156.25V36.5H154V34.25H149.5V38.75H145ZM165.25 38.75V36.5H163V29.75H165.25V27.5H176.5V29.75H178.75V34.25H167.5V36.5H176.5V38.75H165.25ZM167.5 32H174.25V29.75H167.5V32Z" fill="#343434"/>
<path d="M111.75 60.75V47.25H107.25V45H120.75V47.25H116.25V60.75H111.75ZM129.75 51.75H132V54H129.75V60.75H125.25V49.5H129.75V51.75ZM138.75 49.5V51.75H132V49.5H138.75ZM143.25 60.75V58.5H141V56.25H143.25V54H152.25V51.75H143.25V49.5H154.5V51.75H156.75V60.75H143.25ZM145.5 58.5H152.25V56.25H145.5V58.5ZM161.25 60.75V58.5H159V51.75H161.25V49.5H170.25V45H174.75V60.75H161.25ZM163.5 58.5H170.25V51.75H163.5V58.5ZM179.25 60.75V58.5H177V51.75H179.25V49.5H190.5V51.75H192.75V56.25H181.5V58.5H190.5V60.75H179.25ZM181.5 54H188.25V51.75H181.5V54ZM201.75 51.75H204V54H201.75V60.75H197.25V49.5H201.75V51.75ZM210.75 49.5V51.75H204V49.5H210.75Z" fill="#343434"/>
</svg>
